<mxfile host="app.diagrams.net" modified="2024-01-31T05:48:29.652Z" agent="Mozilla/5.0 (Windows NT 10.0; Win64; x64) AppleWebKit/537.36 (KHTML, like Gecko) Chrome/120.0.0.0 Safari/537.36" etag="Um-Y6pgC_E1qxlwCzeOq" version="23.0.2" type="github">
  <diagram name="Страница — 1" id="4Fdq7J63UbBDvYKvQH6w">
    <mxGraphModel dx="3434" dy="1614" grid="0" gridSize="10" guides="1" tooltips="1" connect="1" arrows="1" fold="1" page="0" pageScale="1" pageWidth="827" pageHeight="1169" math="0" shadow="0">
      <root>
        <mxCell id="0" />
        <mxCell id="1" parent="0" />
        <mxCell id="zZ0LbbdaXUdpZdJDIYEp-39" style="edgeStyle=orthogonalEdgeStyle;rounded=0;orthogonalLoop=1;jettySize=auto;html=1;entryX=0.5;entryY=1;entryDx=0;entryDy=0;" edge="1" parent="1" source="H37WC8Knw7A9t5lJtS0E-1" target="zZ0LbbdaXUdpZdJDIYEp-36">
          <mxGeometry relative="1" as="geometry" />
        </mxCell>
        <mxCell id="H37WC8Knw7A9t5lJtS0E-1" value="Рейтинг водителя" style="rounded=1;whiteSpace=wrap;html=1;fontSize=16;" parent="1" vertex="1">
          <mxGeometry x="-442" y="1231" width="264" height="60" as="geometry" />
        </mxCell>
        <mxCell id="zZ0LbbdaXUdpZdJDIYEp-7" style="edgeStyle=orthogonalEdgeStyle;rounded=0;orthogonalLoop=1;jettySize=auto;html=1;entryX=0;entryY=0.5;entryDx=0;entryDy=0;" edge="1" parent="1" source="zZ0LbbdaXUdpZdJDIYEp-1" target="zZ0LbbdaXUdpZdJDIYEp-4">
          <mxGeometry relative="1" as="geometry" />
        </mxCell>
        <mxCell id="zZ0LbbdaXUdpZdJDIYEp-1" value="Создание очереди заказов" style="rounded=1;whiteSpace=wrap;html=1;fontSize=16;" vertex="1" parent="1">
          <mxGeometry x="-703" y="429" width="232" height="60" as="geometry" />
        </mxCell>
        <mxCell id="zZ0LbbdaXUdpZdJDIYEp-38" style="edgeStyle=orthogonalEdgeStyle;rounded=0;orthogonalLoop=1;jettySize=auto;html=1;entryX=0;entryY=0.5;entryDx=0;entryDy=0;" edge="1" parent="1" source="zZ0LbbdaXUdpZdJDIYEp-3" target="zZ0LbbdaXUdpZdJDIYEp-36">
          <mxGeometry relative="1" as="geometry" />
        </mxCell>
        <mxCell id="zZ0LbbdaXUdpZdJDIYEp-3" value="Соответствие дополнительным требованиям" style="rounded=1;whiteSpace=wrap;html=1;fontSize=16;" vertex="1" parent="1">
          <mxGeometry x="-925" y="987" width="267" height="60" as="geometry" />
        </mxCell>
        <mxCell id="zZ0LbbdaXUdpZdJDIYEp-23" style="edgeStyle=orthogonalEdgeStyle;rounded=0;orthogonalLoop=1;jettySize=auto;html=1;" edge="1" parent="1" source="zZ0LbbdaXUdpZdJDIYEp-4" target="zZ0LbbdaXUdpZdJDIYEp-22">
          <mxGeometry relative="1" as="geometry" />
        </mxCell>
        <mxCell id="zZ0LbbdaXUdpZdJDIYEp-27" value="&lt;font style=&quot;font-size: 24px;&quot;&gt;1 Этап&lt;/font&gt;" style="edgeLabel;html=1;align=center;verticalAlign=middle;resizable=0;points=[];" vertex="1" connectable="0" parent="zZ0LbbdaXUdpZdJDIYEp-23">
          <mxGeometry x="-0.2142" relative="1" as="geometry">
            <mxPoint y="1" as="offset" />
          </mxGeometry>
        </mxCell>
        <mxCell id="zZ0LbbdaXUdpZdJDIYEp-4" value="Инстанс приема и ответа &lt;br&gt;заказов" style="rounded=1;whiteSpace=wrap;html=1;fontSize=16;" vertex="1" parent="1">
          <mxGeometry x="-426" y="388.5" width="232" height="141" as="geometry" />
        </mxCell>
        <mxCell id="zZ0LbbdaXUdpZdJDIYEp-6" style="edgeStyle=orthogonalEdgeStyle;rounded=0;orthogonalLoop=1;jettySize=auto;html=1;entryX=0;entryY=0.5;entryDx=0;entryDy=0;" edge="1" parent="1" source="zZ0LbbdaXUdpZdJDIYEp-5" target="zZ0LbbdaXUdpZdJDIYEp-1">
          <mxGeometry relative="1" as="geometry" />
        </mxCell>
        <mxCell id="zZ0LbbdaXUdpZdJDIYEp-5" value="Клиент" style="rounded=1;whiteSpace=wrap;html=1;fontSize=16;" vertex="1" parent="1">
          <mxGeometry x="-1007" y="429" width="232" height="60" as="geometry" />
        </mxCell>
        <mxCell id="zZ0LbbdaXUdpZdJDIYEp-10" style="edgeStyle=orthogonalEdgeStyle;rounded=0;orthogonalLoop=1;jettySize=auto;html=1;entryX=0.5;entryY=0;entryDx=0;entryDy=0;" edge="1" parent="1" source="zZ0LbbdaXUdpZdJDIYEp-8" target="zZ0LbbdaXUdpZdJDIYEp-1">
          <mxGeometry relative="1" as="geometry" />
        </mxCell>
        <mxCell id="zZ0LbbdaXUdpZdJDIYEp-8" value="Клиент" style="rounded=1;whiteSpace=wrap;html=1;fontSize=16;" vertex="1" parent="1">
          <mxGeometry x="-1007" y="303" width="232" height="60" as="geometry" />
        </mxCell>
        <mxCell id="zZ0LbbdaXUdpZdJDIYEp-11" style="edgeStyle=orthogonalEdgeStyle;rounded=0;orthogonalLoop=1;jettySize=auto;html=1;entryX=0.5;entryY=1;entryDx=0;entryDy=0;" edge="1" parent="1" source="zZ0LbbdaXUdpZdJDIYEp-9" target="zZ0LbbdaXUdpZdJDIYEp-1">
          <mxGeometry relative="1" as="geometry" />
        </mxCell>
        <mxCell id="zZ0LbbdaXUdpZdJDIYEp-9" value="Клиент" style="rounded=1;whiteSpace=wrap;html=1;fontSize=16;" vertex="1" parent="1">
          <mxGeometry x="-1014" y="552" width="232" height="60" as="geometry" />
        </mxCell>
        <mxCell id="zZ0LbbdaXUdpZdJDIYEp-43" style="edgeStyle=orthogonalEdgeStyle;rounded=0;orthogonalLoop=1;jettySize=auto;html=1;entryX=0;entryY=0.5;entryDx=0;entryDy=0;" edge="1" parent="1" source="zZ0LbbdaXUdpZdJDIYEp-14" target="zZ0LbbdaXUdpZdJDIYEp-42">
          <mxGeometry relative="1" as="geometry" />
        </mxCell>
        <mxCell id="zZ0LbbdaXUdpZdJDIYEp-14" value="Водитель" style="rounded=1;whiteSpace=wrap;html=1;fontSize=16;" vertex="1" parent="1">
          <mxGeometry x="-1711" y="995" width="232" height="60" as="geometry" />
        </mxCell>
        <mxCell id="zZ0LbbdaXUdpZdJDIYEp-45" style="edgeStyle=orthogonalEdgeStyle;rounded=0;orthogonalLoop=1;jettySize=auto;html=1;entryX=0;entryY=0.5;entryDx=0;entryDy=0;" edge="1" parent="1" source="zZ0LbbdaXUdpZdJDIYEp-15" target="zZ0LbbdaXUdpZdJDIYEp-42">
          <mxGeometry relative="1" as="geometry" />
        </mxCell>
        <mxCell id="zZ0LbbdaXUdpZdJDIYEp-15" value="Водитель" style="rounded=1;whiteSpace=wrap;html=1;fontSize=16;" vertex="1" parent="1">
          <mxGeometry x="-1711" y="1171" width="232" height="60" as="geometry" />
        </mxCell>
        <mxCell id="zZ0LbbdaXUdpZdJDIYEp-44" style="edgeStyle=orthogonalEdgeStyle;rounded=0;orthogonalLoop=1;jettySize=auto;html=1;entryX=0;entryY=0.5;entryDx=0;entryDy=0;" edge="1" parent="1" source="zZ0LbbdaXUdpZdJDIYEp-16" target="zZ0LbbdaXUdpZdJDIYEp-42">
          <mxGeometry relative="1" as="geometry" />
        </mxCell>
        <mxCell id="zZ0LbbdaXUdpZdJDIYEp-16" value="Водитель" style="rounded=1;whiteSpace=wrap;html=1;fontSize=16;" vertex="1" parent="1">
          <mxGeometry x="-1711" y="1083" width="232" height="60" as="geometry" />
        </mxCell>
        <mxCell id="zZ0LbbdaXUdpZdJDIYEp-41" style="edgeStyle=orthogonalEdgeStyle;rounded=0;orthogonalLoop=1;jettySize=auto;html=1;entryX=0;entryY=0.75;entryDx=0;entryDy=0;" edge="1" parent="1" source="zZ0LbbdaXUdpZdJDIYEp-17" target="zZ0LbbdaXUdpZdJDIYEp-36">
          <mxGeometry relative="1" as="geometry" />
        </mxCell>
        <mxCell id="zZ0LbbdaXUdpZdJDIYEp-17" value="Расстояние водителя до клиента" style="rounded=1;whiteSpace=wrap;html=1;fontSize=16;" vertex="1" parent="1">
          <mxGeometry x="-925" y="1083" width="264" height="60" as="geometry" />
        </mxCell>
        <mxCell id="zZ0LbbdaXUdpZdJDIYEp-30" style="edgeStyle=orthogonalEdgeStyle;rounded=0;orthogonalLoop=1;jettySize=auto;html=1;dashed=1;dashPattern=1 2;" edge="1" parent="1" source="zZ0LbbdaXUdpZdJDIYEp-18" target="zZ0LbbdaXUdpZdJDIYEp-22">
          <mxGeometry relative="1" as="geometry" />
        </mxCell>
        <mxCell id="zZ0LbbdaXUdpZdJDIYEp-18" value="Рост круга поиска в зависимости от количества водителей в радиусе и до нахождения нужного водителя" style="rounded=1;whiteSpace=wrap;html=1;fontSize=16;" vertex="1" parent="1">
          <mxGeometry x="-946" y="691.25" width="294" height="108.5" as="geometry" />
        </mxCell>
        <mxCell id="zZ0LbbdaXUdpZdJDIYEp-28" style="edgeStyle=orthogonalEdgeStyle;rounded=0;orthogonalLoop=1;jettySize=auto;html=1;" edge="1" parent="1" source="zZ0LbbdaXUdpZdJDIYEp-22" target="zZ0LbbdaXUdpZdJDIYEp-26">
          <mxGeometry relative="1" as="geometry" />
        </mxCell>
        <mxCell id="zZ0LbbdaXUdpZdJDIYEp-29" value="&lt;font style=&quot;font-size: 24px;&quot;&gt;2 Этап&lt;/font&gt;" style="edgeLabel;html=1;align=center;verticalAlign=middle;resizable=0;points=[];" vertex="1" connectable="0" parent="zZ0LbbdaXUdpZdJDIYEp-28">
          <mxGeometry x="0.0093" y="2" relative="1" as="geometry">
            <mxPoint x="1" as="offset" />
          </mxGeometry>
        </mxCell>
        <mxCell id="zZ0LbbdaXUdpZdJDIYEp-22" value="Вывод, подходящих и неподходящих водителей в вариантах с продолжением поиска" style="rounded=1;whiteSpace=wrap;html=1;fontSize=16;" vertex="1" parent="1">
          <mxGeometry x="-426" y="675" width="232" height="141" as="geometry" />
        </mxCell>
        <mxCell id="zZ0LbbdaXUdpZdJDIYEp-26" value="&lt;font style=&quot;font-size: 24px;&quot;&gt;Расширение круга на большой радиус&lt;/font&gt;" style="rounded=1;whiteSpace=wrap;html=1;fontSize=16;" vertex="1" parent="1">
          <mxGeometry x="-10" y="667" width="278" height="157" as="geometry" />
        </mxCell>
        <mxCell id="zZ0LbbdaXUdpZdJDIYEp-37" style="edgeStyle=orthogonalEdgeStyle;rounded=0;orthogonalLoop=1;jettySize=auto;html=1;entryX=0.5;entryY=1;entryDx=0;entryDy=0;dashed=1;dashPattern=1 1;" edge="1" parent="1" source="zZ0LbbdaXUdpZdJDIYEp-36" target="zZ0LbbdaXUdpZdJDIYEp-22">
          <mxGeometry relative="1" as="geometry" />
        </mxCell>
        <mxCell id="zZ0LbbdaXUdpZdJDIYEp-36" value="&lt;font style=&quot;font-size: 24px;&quot;&gt;Сортировка списка&lt;/font&gt;" style="rounded=1;whiteSpace=wrap;html=1;" vertex="1" parent="1">
          <mxGeometry x="-455" y="962" width="290" height="110" as="geometry" />
        </mxCell>
        <mxCell id="zZ0LbbdaXUdpZdJDIYEp-46" style="edgeStyle=orthogonalEdgeStyle;rounded=0;orthogonalLoop=1;jettySize=auto;html=1;" edge="1" parent="1" source="zZ0LbbdaXUdpZdJDIYEp-42" target="zZ0LbbdaXUdpZdJDIYEp-17">
          <mxGeometry relative="1" as="geometry" />
        </mxCell>
        <mxCell id="zZ0LbbdaXUdpZdJDIYEp-42" value="&lt;span style=&quot;font-size: 18px;&quot;&gt;Список актуальных координат раз в 10 минут&lt;br&gt;Принудительное получение местоположения для вывода клиенту&lt;br&gt;&lt;/span&gt;" style="ellipse;whiteSpace=wrap;html=1;aspect=fixed;" vertex="1" parent="1">
          <mxGeometry x="-1284" y="972" width="282" height="282" as="geometry" />
        </mxCell>
        <mxCell id="zZ0LbbdaXUdpZdJDIYEp-48" style="edgeStyle=orthogonalEdgeStyle;rounded=0;orthogonalLoop=1;jettySize=auto;html=1;entryX=0.5;entryY=1;entryDx=0;entryDy=0;" edge="1" parent="1" source="zZ0LbbdaXUdpZdJDIYEp-47" target="zZ0LbbdaXUdpZdJDIYEp-42">
          <mxGeometry relative="1" as="geometry" />
        </mxCell>
        <mxCell id="zZ0LbbdaXUdpZdJDIYEp-47" value="&lt;font size=&quot;3&quot;&gt;Добавление при желании водителя который далеко&lt;/font&gt;" style="rounded=1;whiteSpace=wrap;html=1;" vertex="1" parent="1">
          <mxGeometry x="-1717" y="1520" width="238" height="60" as="geometry" />
        </mxCell>
        <mxCell id="zZ0LbbdaXUdpZdJDIYEp-51" style="edgeStyle=orthogonalEdgeStyle;rounded=0;orthogonalLoop=1;jettySize=auto;html=1;entryX=0.5;entryY=1;entryDx=0;entryDy=0;" edge="1" parent="1" source="zZ0LbbdaXUdpZdJDIYEp-50" target="H37WC8Knw7A9t5lJtS0E-1">
          <mxGeometry relative="1" as="geometry" />
        </mxCell>
        <mxCell id="zZ0LbbdaXUdpZdJDIYEp-50" value="Если нет требований после расстояния по оценке водителя" style="rounded=1;whiteSpace=wrap;html=1;fontSize=16;" vertex="1" parent="1">
          <mxGeometry x="-442" y="1443" width="264" height="60" as="geometry" />
        </mxCell>
        <mxCell id="zZ0LbbdaXUdpZdJDIYEp-85" style="edgeStyle=orthogonalEdgeStyle;rounded=0;orthogonalLoop=1;jettySize=auto;html=1;" edge="1" parent="1" source="zZ0LbbdaXUdpZdJDIYEp-53" target="H37WC8Knw7A9t5lJtS0E-1">
          <mxGeometry relative="1" as="geometry" />
        </mxCell>
        <mxCell id="zZ0LbbdaXUdpZdJDIYEp-53" value="Бронза, Золото, Платина" style="rounded=1;whiteSpace=wrap;html=1;fontSize=16;" vertex="1" parent="1">
          <mxGeometry x="-912" y="1222.5" width="264" height="77" as="geometry" />
        </mxCell>
        <mxCell id="zZ0LbbdaXUdpZdJDIYEp-56" style="edgeStyle=orthogonalEdgeStyle;rounded=0;orthogonalLoop=1;jettySize=auto;html=1;exitX=0.5;exitY=0;exitDx=0;exitDy=0;entryX=0.362;entryY=1.018;entryDx=0;entryDy=0;entryPerimeter=0;" edge="1" parent="1" source="zZ0LbbdaXUdpZdJDIYEp-55" target="zZ0LbbdaXUdpZdJDIYEp-53">
          <mxGeometry relative="1" as="geometry">
            <mxPoint x="-813" y="1648" as="sourcePoint" />
            <mxPoint x="-809.624" y="1301.656" as="targetPoint" />
            <Array as="points">
              <mxPoint x="-1004" y="1522" />
              <mxPoint x="-817" y="1522" />
              <mxPoint x="-817" y="1305" />
            </Array>
          </mxGeometry>
        </mxCell>
        <mxCell id="zZ0LbbdaXUdpZdJDIYEp-55" value="Оценки клиентов водителю" style="rounded=1;whiteSpace=wrap;html=1;fontSize=16;" vertex="1" parent="1">
          <mxGeometry x="-1136" y="1695" width="264" height="82" as="geometry" />
        </mxCell>
        <mxCell id="zZ0LbbdaXUdpZdJDIYEp-58" style="edgeStyle=orthogonalEdgeStyle;rounded=0;orthogonalLoop=1;jettySize=auto;html=1;entryX=0.708;entryY=0.981;entryDx=0;entryDy=0;entryPerimeter=0;exitX=0.5;exitY=0;exitDx=0;exitDy=0;" edge="1" parent="1" source="zZ0LbbdaXUdpZdJDIYEp-57" target="zZ0LbbdaXUdpZdJDIYEp-53">
          <mxGeometry relative="1" as="geometry">
            <Array as="points">
              <mxPoint x="-482" y="1531" />
              <mxPoint x="-725" y="1531" />
            </Array>
          </mxGeometry>
        </mxCell>
        <mxCell id="zZ0LbbdaXUdpZdJDIYEp-57" value="Количество отказов водителя" style="rounded=1;whiteSpace=wrap;html=1;fontSize=16;" vertex="1" parent="1">
          <mxGeometry x="-630" y="1689" width="264" height="88" as="geometry" />
        </mxCell>
        <mxCell id="zZ0LbbdaXUdpZdJDIYEp-61" style="edgeStyle=orthogonalEdgeStyle;rounded=0;orthogonalLoop=1;jettySize=auto;html=1;entryX=0.541;entryY=1;entryDx=0;entryDy=0;exitX=0.5;exitY=0;exitDx=0;exitDy=0;entryPerimeter=0;" edge="1" parent="1" source="zZ0LbbdaXUdpZdJDIYEp-68" target="zZ0LbbdaXUdpZdJDIYEp-53">
          <mxGeometry relative="1" as="geometry">
            <mxPoint x="-1079" y="1648" as="sourcePoint" />
            <Array as="points">
              <mxPoint x="-769" y="1797" />
            </Array>
          </mxGeometry>
        </mxCell>
        <mxCell id="zZ0LbbdaXUdpZdJDIYEp-66" style="edgeStyle=orthogonalEdgeStyle;rounded=0;orthogonalLoop=1;jettySize=auto;html=1;entryX=0.5;entryY=0;entryDx=0;entryDy=0;" edge="1" parent="1" source="zZ0LbbdaXUdpZdJDIYEp-62" target="zZ0LbbdaXUdpZdJDIYEp-65">
          <mxGeometry relative="1" as="geometry">
            <Array as="points">
              <mxPoint x="549" y="1856" />
              <mxPoint x="484" y="1856" />
              <mxPoint x="484" y="1942" />
            </Array>
          </mxGeometry>
        </mxCell>
        <mxCell id="zZ0LbbdaXUdpZdJDIYEp-67" style="edgeStyle=orthogonalEdgeStyle;rounded=0;orthogonalLoop=1;jettySize=auto;html=1;entryX=0.5;entryY=0;entryDx=0;entryDy=0;" edge="1" parent="1" source="zZ0LbbdaXUdpZdJDIYEp-62" target="zZ0LbbdaXUdpZdJDIYEp-64">
          <mxGeometry relative="1" as="geometry">
            <Array as="points">
              <mxPoint x="657" y="1854" />
              <mxPoint x="733" y="1854" />
              <mxPoint x="733" y="1942" />
            </Array>
          </mxGeometry>
        </mxCell>
        <mxCell id="zZ0LbbdaXUdpZdJDIYEp-62" value="Виды водителей" style="rounded=1;whiteSpace=wrap;html=1;fontSize=16;" vertex="1" parent="1">
          <mxGeometry x="476" y="1754" width="232" height="60" as="geometry" />
        </mxCell>
        <mxCell id="zZ0LbbdaXUdpZdJDIYEp-64" value="По выходным либо вечерам" style="rounded=1;whiteSpace=wrap;html=1;fontSize=16;" vertex="1" parent="1">
          <mxGeometry x="620" y="1949" width="232" height="60" as="geometry" />
        </mxCell>
        <mxCell id="zZ0LbbdaXUdpZdJDIYEp-65" value="Постоянные" style="rounded=1;whiteSpace=wrap;html=1;fontSize=16;" vertex="1" parent="1">
          <mxGeometry x="367" y="1949" width="232" height="60" as="geometry" />
        </mxCell>
        <mxCell id="zZ0LbbdaXUdpZdJDIYEp-68" value="Общее количество заказов" style="rounded=1;whiteSpace=wrap;html=1;fontSize=16;" vertex="1" parent="1">
          <mxGeometry x="-907" y="1797" width="264" height="114" as="geometry" />
        </mxCell>
        <mxCell id="zZ0LbbdaXUdpZdJDIYEp-69" value="Формирование цены" style="rounded=1;whiteSpace=wrap;html=1;" vertex="1" parent="1">
          <mxGeometry x="-1607" y="332" width="120" height="60" as="geometry" />
        </mxCell>
        <mxCell id="zZ0LbbdaXUdpZdJDIYEp-71" style="edgeStyle=orthogonalEdgeStyle;rounded=0;orthogonalLoop=1;jettySize=auto;html=1;entryX=0;entryY=0.5;entryDx=0;entryDy=0;" edge="1" parent="1" source="zZ0LbbdaXUdpZdJDIYEp-70" target="zZ0LbbdaXUdpZdJDIYEp-69">
          <mxGeometry relative="1" as="geometry" />
        </mxCell>
        <mxCell id="zZ0LbbdaXUdpZdJDIYEp-70" value="Начальная ставка" style="rounded=1;whiteSpace=wrap;html=1;" vertex="1" parent="1">
          <mxGeometry x="-1804" y="594" width="120" height="60" as="geometry" />
        </mxCell>
        <mxCell id="zZ0LbbdaXUdpZdJDIYEp-73" style="edgeStyle=orthogonalEdgeStyle;rounded=0;orthogonalLoop=1;jettySize=auto;html=1;entryX=0.5;entryY=1;entryDx=0;entryDy=0;" edge="1" parent="1" source="zZ0LbbdaXUdpZdJDIYEp-72" target="zZ0LbbdaXUdpZdJDIYEp-69">
          <mxGeometry relative="1" as="geometry" />
        </mxCell>
        <mxCell id="zZ0LbbdaXUdpZdJDIYEp-72" value="Стоимость бензина" style="rounded=1;whiteSpace=wrap;html=1;" vertex="1" parent="1">
          <mxGeometry x="-1607" y="607" width="120" height="60" as="geometry" />
        </mxCell>
        <mxCell id="zZ0LbbdaXUdpZdJDIYEp-74" value="Цена рынка" style="rounded=1;whiteSpace=wrap;html=1;" vertex="1" parent="1">
          <mxGeometry x="-1398" y="607" width="120" height="60" as="geometry" />
        </mxCell>
        <mxCell id="zZ0LbbdaXUdpZdJDIYEp-75" style="edgeStyle=orthogonalEdgeStyle;rounded=0;orthogonalLoop=1;jettySize=auto;html=1;entryX=0.998;entryY=0.422;entryDx=0;entryDy=0;entryPerimeter=0;" edge="1" parent="1" source="zZ0LbbdaXUdpZdJDIYEp-74" target="zZ0LbbdaXUdpZdJDIYEp-69">
          <mxGeometry relative="1" as="geometry" />
        </mxCell>
        <mxCell id="zZ0LbbdaXUdpZdJDIYEp-91" style="edgeStyle=orthogonalEdgeStyle;rounded=0;orthogonalLoop=1;jettySize=auto;html=1;entryX=0.25;entryY=0;entryDx=0;entryDy=0;" edge="1" parent="1" source="zZ0LbbdaXUdpZdJDIYEp-76" target="zZ0LbbdaXUdpZdJDIYEp-78">
          <mxGeometry relative="1" as="geometry" />
        </mxCell>
        <mxCell id="zZ0LbbdaXUdpZdJDIYEp-98" value="2. Выбор варианта" style="edgeLabel;html=1;align=center;verticalAlign=middle;resizable=0;points=[];" vertex="1" connectable="0" parent="zZ0LbbdaXUdpZdJDIYEp-91">
          <mxGeometry x="-0.3409" y="-1" relative="1" as="geometry">
            <mxPoint x="9" y="31" as="offset" />
          </mxGeometry>
        </mxCell>
        <mxCell id="zZ0LbbdaXUdpZdJDIYEp-76" value="Водитель&lt;br&gt;принимает заказ из вариантов после прикрепления" style="rounded=1;whiteSpace=wrap;html=1;" vertex="1" parent="1">
          <mxGeometry x="-391" y="-52" width="120" height="80" as="geometry" />
        </mxCell>
        <mxCell id="zZ0LbbdaXUdpZdJDIYEp-87" style="edgeStyle=orthogonalEdgeStyle;rounded=0;orthogonalLoop=1;jettySize=auto;html=1;entryX=1;entryY=0.5;entryDx=0;entryDy=0;" edge="1" parent="1" source="zZ0LbbdaXUdpZdJDIYEp-77" target="zZ0LbbdaXUdpZdJDIYEp-79">
          <mxGeometry relative="1" as="geometry">
            <Array as="points">
              <mxPoint x="60" y="-148" />
            </Array>
          </mxGeometry>
        </mxCell>
        <mxCell id="zZ0LbbdaXUdpZdJDIYEp-96" value="1. Прикрепление" style="edgeLabel;html=1;align=center;verticalAlign=middle;resizable=0;points=[];" vertex="1" connectable="0" parent="zZ0LbbdaXUdpZdJDIYEp-87">
          <mxGeometry x="-0.0712" y="1" relative="1" as="geometry">
            <mxPoint as="offset" />
          </mxGeometry>
        </mxCell>
        <mxCell id="zZ0LbbdaXUdpZdJDIYEp-93" style="edgeStyle=orthogonalEdgeStyle;rounded=0;orthogonalLoop=1;jettySize=auto;html=1;entryX=1;entryY=0.25;entryDx=0;entryDy=0;" edge="1" parent="1" source="zZ0LbbdaXUdpZdJDIYEp-77" target="zZ0LbbdaXUdpZdJDIYEp-76">
          <mxGeometry relative="1" as="geometry">
            <Array as="points">
              <mxPoint x="-66" y="-32" />
              <mxPoint x="-66" y="-32" />
            </Array>
          </mxGeometry>
        </mxCell>
        <mxCell id="zZ0LbbdaXUdpZdJDIYEp-94" value="&amp;nbsp; ОТКАЗ&amp;nbsp;&amp;nbsp;" style="edgeLabel;html=1;align=center;verticalAlign=middle;resizable=0;points=[];" vertex="1" connectable="0" parent="zZ0LbbdaXUdpZdJDIYEp-93">
          <mxGeometry x="0.1692" y="-1" relative="1" as="geometry">
            <mxPoint as="offset" />
          </mxGeometry>
        </mxCell>
        <mxCell id="zZ0LbbdaXUdpZdJDIYEp-108" style="edgeStyle=orthogonalEdgeStyle;rounded=0;orthogonalLoop=1;jettySize=auto;html=1;entryX=0;entryY=0.5;entryDx=0;entryDy=0;" edge="1" parent="1" source="zZ0LbbdaXUdpZdJDIYEp-77" target="zZ0LbbdaXUdpZdJDIYEp-102">
          <mxGeometry relative="1" as="geometry" />
        </mxCell>
        <mxCell id="zZ0LbbdaXUdpZdJDIYEp-77" value="Сервер" style="rounded=1;whiteSpace=wrap;html=1;" vertex="1" parent="1">
          <mxGeometry x="7" y="-75" width="139" height="90" as="geometry" />
        </mxCell>
        <mxCell id="zZ0LbbdaXUdpZdJDIYEp-92" style="edgeStyle=orthogonalEdgeStyle;rounded=0;orthogonalLoop=1;jettySize=auto;html=1;" edge="1" parent="1" source="zZ0LbbdaXUdpZdJDIYEp-78" target="zZ0LbbdaXUdpZdJDIYEp-77">
          <mxGeometry relative="1" as="geometry">
            <Array as="points">
              <mxPoint x="-164" y="-19" />
            </Array>
          </mxGeometry>
        </mxCell>
        <mxCell id="zZ0LbbdaXUdpZdJDIYEp-99" value="Запрос выбора варианта" style="edgeLabel;html=1;align=center;verticalAlign=middle;resizable=0;points=[];" vertex="1" connectable="0" parent="zZ0LbbdaXUdpZdJDIYEp-92">
          <mxGeometry x="-0.0262" y="-4" relative="1" as="geometry">
            <mxPoint as="offset" />
          </mxGeometry>
        </mxCell>
        <mxCell id="zZ0LbbdaXUdpZdJDIYEp-78" value="Варианты заказов" style="rounded=1;whiteSpace=wrap;html=1;" vertex="1" parent="1">
          <mxGeometry x="-232" y="55" width="136" height="75" as="geometry" />
        </mxCell>
        <mxCell id="zZ0LbbdaXUdpZdJDIYEp-88" style="edgeStyle=orthogonalEdgeStyle;rounded=0;orthogonalLoop=1;jettySize=auto;html=1;entryX=0.5;entryY=0;entryDx=0;entryDy=0;" edge="1" parent="1" source="zZ0LbbdaXUdpZdJDIYEp-79" target="zZ0LbbdaXUdpZdJDIYEp-76">
          <mxGeometry relative="1" as="geometry" />
        </mxCell>
        <mxCell id="zZ0LbbdaXUdpZdJDIYEp-97" value="Прикрепление" style="edgeLabel;html=1;align=center;verticalAlign=middle;resizable=0;points=[];" vertex="1" connectable="0" parent="zZ0LbbdaXUdpZdJDIYEp-88">
          <mxGeometry x="-0.0922" y="-2" relative="1" as="geometry">
            <mxPoint as="offset" />
          </mxGeometry>
        </mxCell>
        <mxCell id="zZ0LbbdaXUdpZdJDIYEp-79" value="Автоматически прикрепленный заказ" style="rounded=1;whiteSpace=wrap;html=1;" vertex="1" parent="1">
          <mxGeometry x="-216" y="-178" width="120" height="60" as="geometry" />
        </mxCell>
        <mxCell id="zZ0LbbdaXUdpZdJDIYEp-82" style="edgeStyle=orthogonalEdgeStyle;rounded=0;orthogonalLoop=1;jettySize=auto;html=1;entryX=0;entryY=0.5;entryDx=0;entryDy=0;" edge="1" parent="1" source="zZ0LbbdaXUdpZdJDIYEp-81" target="zZ0LbbdaXUdpZdJDIYEp-53">
          <mxGeometry relative="1" as="geometry">
            <Array as="points">
              <mxPoint x="-1379" y="1605" />
              <mxPoint x="-1079" y="1605" />
              <mxPoint x="-1079" y="1261" />
            </Array>
          </mxGeometry>
        </mxCell>
        <mxCell id="zZ0LbbdaXUdpZdJDIYEp-81" value="Время в котором водитель онлайн" style="rounded=1;whiteSpace=wrap;html=1;fontSize=16;" vertex="1" parent="1">
          <mxGeometry x="-1511" y="1672" width="264" height="82" as="geometry" />
        </mxCell>
        <mxCell id="zZ0LbbdaXUdpZdJDIYEp-84" style="edgeStyle=orthogonalEdgeStyle;rounded=0;orthogonalLoop=1;jettySize=auto;html=1;entryX=0;entryY=0.75;entryDx=0;entryDy=0;" edge="1" parent="1" source="zZ0LbbdaXUdpZdJDIYEp-83" target="zZ0LbbdaXUdpZdJDIYEp-53">
          <mxGeometry relative="1" as="geometry">
            <Array as="points">
              <mxPoint x="-1187" y="1957" />
              <mxPoint x="-1187" y="1643" />
              <mxPoint x="-1033" y="1643" />
              <mxPoint x="-1033" y="1280" />
            </Array>
          </mxGeometry>
        </mxCell>
        <mxCell id="zZ0LbbdaXUdpZdJDIYEp-83" value="Возможные ограничения со стороны водителя&lt;br&gt;- Нельзя курить&lt;br&gt;- Сидение для ребенка&lt;br&gt;итд" style="rounded=1;whiteSpace=wrap;html=1;fontSize=16;" vertex="1" parent="1">
          <mxGeometry x="-1493" y="1885" width="264" height="144" as="geometry" />
        </mxCell>
        <mxCell id="zZ0LbbdaXUdpZdJDIYEp-89" style="edgeStyle=orthogonalEdgeStyle;rounded=0;orthogonalLoop=1;jettySize=auto;html=1;entryX=1.002;entryY=0.462;entryDx=0;entryDy=0;entryPerimeter=0;exitX=0.5;exitY=1;exitDx=0;exitDy=0;" edge="1" parent="1" source="zZ0LbbdaXUdpZdJDIYEp-77" target="zZ0LbbdaXUdpZdJDIYEp-78">
          <mxGeometry relative="1" as="geometry">
            <mxPoint x="73.06448275862093" y="15.000000000000114" as="sourcePoint" />
            <mxPoint x="-81.4739999999999" y="88.67499999999995" as="targetPoint" />
            <Array as="points">
              <mxPoint x="87" y="34" />
              <mxPoint x="87" y="91" />
              <mxPoint x="-89" y="91" />
              <mxPoint x="-89" y="90" />
            </Array>
          </mxGeometry>
        </mxCell>
        <mxCell id="zZ0LbbdaXUdpZdJDIYEp-100" value="0. Предоставление вариантов" style="edgeLabel;html=1;align=center;verticalAlign=middle;resizable=0;points=[];" vertex="1" connectable="0" parent="zZ0LbbdaXUdpZdJDIYEp-89">
          <mxGeometry x="0.2621" relative="1" as="geometry">
            <mxPoint as="offset" />
          </mxGeometry>
        </mxCell>
        <mxCell id="zZ0LbbdaXUdpZdJDIYEp-90" style="edgeStyle=orthogonalEdgeStyle;rounded=0;orthogonalLoop=1;jettySize=auto;html=1;entryX=0.495;entryY=1.069;entryDx=0;entryDy=0;entryPerimeter=0;" edge="1" parent="1" source="zZ0LbbdaXUdpZdJDIYEp-78" target="zZ0LbbdaXUdpZdJDIYEp-76">
          <mxGeometry relative="1" as="geometry" />
        </mxCell>
        <mxCell id="zZ0LbbdaXUdpZdJDIYEp-101" value="&amp;nbsp;Предоставление вариантов" style="edgeLabel;html=1;align=center;verticalAlign=middle;resizable=0;points=[];" vertex="1" connectable="0" parent="zZ0LbbdaXUdpZdJDIYEp-90">
          <mxGeometry x="0.3396" y="1" relative="1" as="geometry">
            <mxPoint as="offset" />
          </mxGeometry>
        </mxCell>
        <mxCell id="zZ0LbbdaXUdpZdJDIYEp-110" style="edgeStyle=orthogonalEdgeStyle;rounded=0;orthogonalLoop=1;jettySize=auto;html=1;entryX=0.5;entryY=0;entryDx=0;entryDy=0;" edge="1" parent="1" source="zZ0LbbdaXUdpZdJDIYEp-102" target="zZ0LbbdaXUdpZdJDIYEp-106">
          <mxGeometry relative="1" as="geometry" />
        </mxCell>
        <mxCell id="zZ0LbbdaXUdpZdJDIYEp-112" style="edgeStyle=orthogonalEdgeStyle;rounded=0;orthogonalLoop=1;jettySize=auto;html=1;entryX=0;entryY=0.5;entryDx=0;entryDy=0;" edge="1" parent="1" source="zZ0LbbdaXUdpZdJDIYEp-102" target="zZ0LbbdaXUdpZdJDIYEp-111">
          <mxGeometry relative="1" as="geometry" />
        </mxCell>
        <mxCell id="zZ0LbbdaXUdpZdJDIYEp-102" value="Список инстансов" style="rounded=1;whiteSpace=wrap;html=1;" vertex="1" parent="1">
          <mxGeometry x="274" y="-60" width="120" height="60" as="geometry" />
        </mxCell>
        <mxCell id="zZ0LbbdaXUdpZdJDIYEp-114" style="edgeStyle=orthogonalEdgeStyle;rounded=0;orthogonalLoop=1;jettySize=auto;html=1;entryX=0.5;entryY=1;entryDx=0;entryDy=0;dashed=1;dashPattern=1 1;" edge="1" parent="1" source="zZ0LbbdaXUdpZdJDIYEp-103" target="zZ0LbbdaXUdpZdJDIYEp-113">
          <mxGeometry relative="1" as="geometry" />
        </mxCell>
        <mxCell id="zZ0LbbdaXUdpZdJDIYEp-103" value="Инстансы для каждого водителя или для каждого 10шт водителя" style="rounded=1;whiteSpace=wrap;html=1;" vertex="1" parent="1">
          <mxGeometry x="186" y="-244" width="139" height="90" as="geometry" />
        </mxCell>
        <mxCell id="zZ0LbbdaXUdpZdJDIYEp-115" style="edgeStyle=orthogonalEdgeStyle;rounded=0;orthogonalLoop=1;jettySize=auto;html=1;dashed=1;dashPattern=1 2;" edge="1" parent="1" source="zZ0LbbdaXUdpZdJDIYEp-106">
          <mxGeometry relative="1" as="geometry">
            <mxPoint x="259.16666666666697" y="311.16666666666674" as="targetPoint" />
          </mxGeometry>
        </mxCell>
        <mxCell id="zZ0LbbdaXUdpZdJDIYEp-106" value="Инстансы для каждого водителя или для каждого 10шт водителя" style="rounded=1;whiteSpace=wrap;html=1;" vertex="1" parent="1">
          <mxGeometry x="268" y="68" width="139" height="90" as="geometry" />
        </mxCell>
        <mxCell id="zZ0LbbdaXUdpZdJDIYEp-109" style="edgeStyle=orthogonalEdgeStyle;rounded=0;orthogonalLoop=1;jettySize=auto;html=1;entryX=0.468;entryY=0.991;entryDx=0;entryDy=0;entryPerimeter=0;" edge="1" parent="1" source="zZ0LbbdaXUdpZdJDIYEp-102" target="zZ0LbbdaXUdpZdJDIYEp-103">
          <mxGeometry relative="1" as="geometry" />
        </mxCell>
        <mxCell id="zZ0LbbdaXUdpZdJDIYEp-116" style="edgeStyle=orthogonalEdgeStyle;rounded=0;orthogonalLoop=1;jettySize=auto;html=1;dashed=1;dashPattern=1 1;" edge="1" parent="1" source="zZ0LbbdaXUdpZdJDIYEp-111">
          <mxGeometry relative="1" as="geometry">
            <mxPoint x="709.166666666667" y="-106.33333333333326" as="targetPoint" />
          </mxGeometry>
        </mxCell>
        <mxCell id="zZ0LbbdaXUdpZdJDIYEp-111" value="Инстансы для каждого водителя или для каждого 10шт водителя" style="rounded=1;whiteSpace=wrap;html=1;" vertex="1" parent="1">
          <mxGeometry x="460" y="-77" width="139" height="90" as="geometry" />
        </mxCell>
        <mxCell id="zZ0LbbdaXUdpZdJDIYEp-113" value="Сервер" style="rounded=1;whiteSpace=wrap;html=1;" vertex="1" parent="1">
          <mxGeometry x="105" y="-432" width="139" height="90" as="geometry" />
        </mxCell>
      </root>
    </mxGraphModel>
  </diagram>
</mxfile>
